<svg width="65" height="22" viewBox="0 0 65 22" fill="none" xmlns="http://www.w3.org/2000/svg">
<path fill-rule="evenodd" clip-rule="evenodd" d="M58.7632 14.1118C57.6067 16.8107 56.7201 17.8132 54.1368 18.7382C51.5536 19.6638 45.115 19.741 42.5318 18.1987C39.9485 16.6563 37.5968 11.6058 38.0207 8.21277C38.4449 4.82011 44.1513 3.70203 44.1513 3.70203C53.0959 2.39119 57.4139 4.0107 58.8019 5.16719C60.1899 6.32403 59.92 11.413 58.7632 14.1118ZM23.0818 18.1983C20.4985 19.7407 14.06 19.6635 11.4767 18.7382C8.89379 17.8128 8.00688 16.8103 6.85038 14.1115C5.69388 11.4127 5.42397 6.32335 6.81196 5.16685C8.19996 4.01036 12.5183 2.39085 21.4626 3.70203C21.4626 3.70203 27.1689 4.82011 27.5932 8.21277C28.0171 11.6058 25.665 16.6563 23.0818 18.1983ZM64.2258 2.96706C55.5507 -0.491206 46.3687 1.05963 39.3397 2.79641C36.752 3.43585 34.0698 3.59528 34.043 3.59698L32.8097 3.60922L31.5855 3.59732C31.544 3.59528 28.8615 3.43551 26.2742 2.79607C12.8916 -0.510243 5.94476 1.15039 1.38779 2.96638C1.11515 3.07517 0.939061 3.33488 0.939061 3.62826L0.938721 6.54363C0.938721 6.75508 1.03187 6.95429 1.19402 7.09027C1.76683 7.56891 2.50519 8.23826 2.76831 8.70569C2.91381 8.96405 3.29557 9.92338 3.90713 11.4674C4.69852 13.467 5.78261 16.2049 6.21468 16.9004C6.61344 17.5433 8.85436 20.7629 13.8108 21.0216C18.314 21.2568 22.906 21.2881 25.235 18.9194C27.5619 16.5533 30.1812 10.1855 30.2074 10.1216C30.4069 9.56507 31.2068 8.51498 32.8069 8.60201C32.8685 8.59861 32.9297 8.59691 32.9892 8.59691C34.4621 8.59691 35.2148 9.58717 35.4109 10.1341C35.4323 10.1858 38.0516 16.5533 40.3786 18.9197C42.7079 21.2881 47.3005 21.2575 51.8028 21.0219C56.7585 20.7632 58.9998 17.5436 59.3989 16.9011C59.8309 16.2056 60.9147 13.4673 61.7064 11.4681C62.3176 9.92406 62.6997 8.96439 62.8452 8.70637C63.1084 8.2386 63.8467 7.56959 64.4199 7.09061C64.5813 6.95497 64.6745 6.75576 64.6745 6.54397V3.6286C64.6745 3.33522 64.4984 3.07551 64.2258 2.96706Z" fill="#3A4850"/>
</svg>
